<svg width="32" height="32" viewBox="0 0 32 32" fill="none" xmlns="http://www.w3.org/2000/svg">
<rect width="32" height="32" rx="6" fill="white"/>
<rect x="0.326087" y="0.326087" width="31.3478" height="31.3478" rx="5.67391" stroke="#83899F" stroke-opacity="0.4" stroke-width="0.652174"/>
<g clip-path="url(#clip0_4_7162)">
<path d="M11.3333 8H20.6667C22.5067 8 24 9.49333 24 11.3333V20.6667C24 22.5067 22.5067 24 20.6667 24H11.3333C9.49333 24 8 22.5067 8 20.6667V11.3333C8 9.49333 9.49333 8 11.3333 8ZM9.33333 20.6667C9.33333 21.7667 10.2333 22.6667 11.3333 22.6667H20.6667C21.7667 22.6667 22.6667 21.7667 22.6667 20.6667V11.3333C22.6667 10.2333 21.7667 9.33333 20.6667 9.33333H11.3333C10.2333 9.33333 9.33333 10.2333 9.33333 11.3333V20.6667ZM20.6667 14.6667C20.6667 14.3 20.3667 14 20 14H14C13.6333 14 13.3333 14.3 13.3333 14.6667C13.3333 15.0333 13.6333 15.3333 14 15.3333H20C20.3667 15.3333 20.6667 15.0333 20.6667 14.6667ZM20.6667 12C20.6667 11.6333 20.3667 11.3333 20 11.3333H16C15.6333 11.3333 15.3333 11.6333 15.3333 12C15.3333 12.3667 15.6333 12.6667 16 12.6667H20C20.3667 12.6667 20.6667 12.3667 20.6667 12ZM11.3333 17.3333C11.3333 17.7 11.6333 18 12 18H20C20.3667 18 20.6667 17.7 20.6667 17.3333C20.6667 16.9667 20.3667 16.6667 20 16.6667H12C11.6333 16.6667 11.3333 16.9667 11.3333 17.3333ZM17.3333 20C17.3333 20.3667 17.6333 20.6667 18 20.6667H20C20.3667 20.6667 20.6667 20.3667 20.6667 20C20.6667 19.6333 20.3667 19.3333 20 19.3333H18C17.6333 19.3333 17.3333 19.6333 17.3333 20Z" fill="#83899F"/>
</g>
<defs>
<clipPath id="clip0_4_7162">
<rect width="16" height="16" fill="white" transform="matrix(-1 0 0 1 24 8)"/>
</clipPath>
</defs>
</svg>
