<svg width="26" height="26" viewBox="0 0 26 26" fill="none" xmlns="http://www.w3.org/2000/svg">
<rect width="26" height="26" rx="6" fill="#0771DE"/>
<path opacity="0.5" d="M13.4518 18.3047C13.6349 18.3473 13.6517 18.5872 13.4733 18.6467L12.42 18.9933C9.77332 19.8467 8.37998 19.1333 7.51998 16.4867L6.66665 13.8533C5.81332 11.2067 6.51998 9.80668 9.16665 8.95334L9.17731 8.94981C9.58018 8.81639 9.98102 9.22365 9.87901 9.63559C9.87264 9.66132 9.8663 9.68724 9.85998 9.71334L9.20665 12.5067C8.47332 15.6467 9.54665 17.38 12.6867 18.1267L13.4518 18.3047Z" fill="white"/>
<path d="M16.4466 7.14L15.3333 6.88C13.1066 6.35333 11.78 6.78666 11 8.4C10.8 8.80666 10.64 9.3 10.5066 9.86666L9.85331 12.66C9.19998 15.4467 10.06 16.82 12.84 17.48L13.96 17.7467C14.3466 17.84 14.7066 17.9 15.04 17.9267C17.12 18.1267 18.2266 17.1533 18.7866 14.7467L19.44 11.96C20.0933 9.17333 19.24 7.79333 16.4466 7.14ZM15.1933 13.8867C15.1333 14.1133 14.9333 14.26 14.7066 14.26C14.6666 14.26 14.6266 14.2533 14.58 14.2467L12.64 13.7533C12.3733 13.6867 12.2133 13.4133 12.28 13.1467C12.3466 12.88 12.62 12.72 12.8866 12.7867L14.8266 13.28C15.1 13.3467 15.26 13.62 15.1933 13.8867ZM17.1466 11.6333C17.0866 11.86 16.8866 12.0067 16.66 12.0067C16.62 12.0067 16.58 12 16.5333 11.9933L13.3 11.1733C13.0333 11.1067 12.8733 10.8333 12.94 10.5667C13.0066 10.3 13.28 10.14 13.5466 10.2067L16.78 11.0267C17.0533 11.0867 17.2133 11.36 17.1466 11.6333Z" fill="white"/>
</svg>
