<svg width="20" height="20" viewBox="0 0 20 20" fill="none" xmlns="http://www.w3.org/2000/svg">
<rect width="20" height="20" rx="6.54089" transform="matrix(-1 0 0 1 20 0)" fill="#00AD8D"/>
<path d="M11.5867 5.95893C10.6607 5.81541 9.7163 5.81541 8.79038 5.95893C8.41075 6.01911 8.13296 6.34318 8.13296 6.72281V8.42651H6.42926C6.04963 8.42651 5.72556 8.7043 5.66538 9.08393C5.52186 10.0099 5.52186 10.9543 5.66538 11.8802C5.72556 12.2598 6.04963 12.5376 6.42926 12.5376H7.20704C7.33667 12.5376 7.43852 12.4358 7.43852 12.3061V11.5098C7.43852 10.5608 8.21167 9.78763 9.16074 9.78763H11.2163C11.4015 9.78763 11.5496 9.63948 11.5496 9.45429V7.96355C11.5496 7.83392 11.6515 7.73207 11.7811 7.73207H12.0126C12.1422 7.73207 12.2441 7.63022 12.2441 7.50059V6.72281C12.2441 6.34318 11.9663 6.01911 11.5867 5.95893ZM9.41537 7.50984C9.22555 7.50984 9.045 7.32929 9.045 7.13948C9.045 6.94503 9.22555 6.76448 9.41537 6.76448C9.50796 6.76448 9.60982 6.80615 9.67464 6.87096C9.74408 6.93578 9.79038 7.04225 9.79038 7.13948C9.79038 7.32929 9.60981 7.50984 9.41537 7.50984Z" fill="white"/>
<path opacity="0.8" d="M14.7116 9.08393C14.6514 8.7043 14.3274 8.42651 13.9477 8.42651H12.4755C12.3459 8.42651 12.244 8.52837 12.244 8.658V9.45429C12.244 10.0191 11.7857 10.4821 11.2163 10.4821H9.16071C8.59127 10.4821 8.13293 10.9404 8.13293 11.5098V14.2413C8.13293 14.621 8.41072 14.945 8.79035 15.0052C9.71627 15.1487 10.6607 15.1487 11.5866 15.0052C11.9663 14.945 12.244 14.621 12.244 14.2413V12.5376H13.9477C14.3274 12.5376 14.6514 12.2598 14.7116 11.8802C14.8552 10.9543 14.8552 10.0099 14.7116 9.08393ZM10.9616 14.1997C10.7718 14.1997 10.5866 14.0191 10.5866 13.8247C10.5866 13.6302 10.7672 13.4497 10.9616 13.4497C11.0496 13.4497 11.1561 13.4913 11.2209 13.5515C11.2903 13.6163 11.3366 13.7274 11.3366 13.82C11.332 14.0191 11.1515 14.1997 10.9616 14.1997Z" fill="white"/>
</svg>
