<svg width="20" height="20" viewBox="0 0 20 20" fill="none" xmlns="http://www.w3.org/2000/svg">
<rect x="-0.25" y="0.25" width="19.5" height="19.5" rx="4.75" transform="matrix(-1 0 0 1 19.5 0)" fill="white" stroke="#E0E0E0" stroke-width="0.5"/>
<g clip-path="url(#clip0_4_7223)">
<path d="M12.8387 9.16667C12.9675 9.16667 13.0892 9.10708 13.1679 9.00542C13.2467 8.90375 13.2742 8.77125 13.2425 8.64667C13.1129 8.13958 12.8487 7.67625 12.4787 7.30625L11.0267 5.85417C10.4758 5.30333 9.74333 5 8.96417 5H7.08292C5.93458 5 5 5.93458 5 7.08333V12.9167C5 14.0654 5.93458 15 7.08333 15H8.33333C8.56333 15 8.75 14.8133 8.75 14.5833C8.75 14.3533 8.56333 14.1667 8.33333 14.1667H7.08333C6.39417 14.1667 5.83333 13.6058 5.83333 12.9167V7.08333C5.83333 6.39417 6.39417 5.83333 7.08333 5.83333H8.96458C9.0325 5.83333 9.1 5.83667 9.16667 5.84292V7.91667C9.16667 8.60583 9.7275 9.16667 10.4167 9.16667H12.8387ZM10 7.91667V6.10792C10.1579 6.19875 10.305 6.31125 10.4375 6.44375L11.8896 7.89583C12.0204 8.02667 12.1325 8.17417 12.2242 8.33333H10.4167C10.1871 8.33333 10 8.14625 10 7.91667ZM14.6342 9.94958C14.1617 9.47708 13.3383 9.47708 12.8662 9.94958L10.0717 12.7442C9.75708 13.0588 9.58333 13.4775 9.58333 13.9229V14.5838C9.58333 14.8138 9.77 15.0004 10 15.0004H10.6608C11.1062 15.0004 11.5246 14.8267 11.8392 14.5121L14.6337 11.7175C14.87 11.4813 15 11.1675 15 10.8333C15 10.4992 14.87 10.1854 14.6342 9.94958ZM14.0446 11.1279L11.2496 13.9225C11.0925 14.08 10.8833 14.1667 10.6604 14.1667H10.4162V13.9225C10.4162 13.7 10.5029 13.4908 10.6604 13.3333L13.4554 10.5388C13.6125 10.3813 13.8871 10.3813 14.0446 10.5388C14.1233 10.6171 14.1667 10.7217 14.1667 10.8333C14.1667 10.945 14.1233 11.0492 14.0446 11.1279Z" fill="#83899F"/>
</g>
<defs>
<clipPath id="clip0_4_7223">
<rect width="10" height="10" fill="white" transform="translate(5 5)"/>
</clipPath>
</defs>
</svg>
