<svg width="14" height="14" viewBox="0 0 14 14" fill="none" xmlns="http://www.w3.org/2000/svg">
<path opacity="0.5" d="M6.96499 1.28918L5.55916 4.56168H4.15333C3.91999 4.56168 3.69249 4.57918 3.47083 4.62585L4.05416 3.22585L4.07749 3.17335L4.11249 3.08001C4.12999 3.03918 4.14166 3.00418 4.15916 2.97501C4.83583 1.40585 5.59416 0.915847 6.96499 1.28918Z" fill="#0771DE"/>
<path opacity="0.5" d="M10.9258 4.71917L10.9142 4.71333C10.5642 4.61417 10.2083 4.56167 9.84667 4.56167H6.19501L7.50751 1.51083L7.52501 1.47C7.60667 1.49917 7.69417 1.54 7.78167 1.56917L9.07084 2.11167C9.78834 2.40917 10.29 2.71833 10.5992 3.09167C10.6517 3.16167 10.6983 3.22583 10.745 3.30167C10.7975 3.38333 10.8383 3.465 10.8617 3.5525C10.885 3.605 10.9025 3.65167 10.9142 3.70417C11.0017 4.00167 11.0075 4.34 10.9258 4.71917Z" fill="#0771DE"/>
<path d="M10.6691 5.55334C10.4066 5.47751 10.1325 5.43668 9.84664 5.43668H4.15331C3.75664 5.43668 3.38331 5.51251 3.03331 5.66418C2.01831 6.10168 1.30664 7.11084 1.30664 8.28334V9.42084C1.30664 9.56084 1.31831 9.69501 1.33581 9.83501C1.46414 11.69 2.45581 12.6817 4.31081 12.8042C4.44497 12.8217 4.57914 12.8333 4.72497 12.8333H9.27497C11.4333 12.8333 12.5708 11.8067 12.6816 9.76501C12.6875 9.65418 12.6933 9.53751 12.6933 9.42084V8.28334C12.6933 6.99418 11.8358 5.90918 10.6691 5.55334ZM8.45831 9.77084H5.54164C5.30247 9.77084 5.10414 9.57251 5.10414 9.33334C5.10414 9.09418 5.30247 8.89584 5.54164 8.89584H8.45831C8.69747 8.89584 8.89581 9.09418 8.89581 9.33334C8.89581 9.57251 8.69747 9.77084 8.45831 9.77084Z" fill="#0771DE"/>
</svg>
