<svg width="26" height="26" viewBox="0 0 26 26" fill="none" xmlns="http://www.w3.org/2000/svg">
<rect x="3" y="3" width="20" height="20" rx="9.99998" fill="#F6F8FA"/>
<path d="M13.0001 13.375C11.4151 13.375 10.1251 12.085 10.1251 10.5C10.1251 8.91498 11.4151 7.62498 13.0001 7.62498C14.5851 7.62498 15.8751 8.91498 15.8751 10.5C15.8751 12.085 14.5851 13.375 13.0001 13.375ZM13.0001 8.37498C11.8301 8.37498 10.8751 9.32998 10.8751 10.5C10.8751 11.67 11.8301 12.625 13.0001 12.625C14.1701 12.625 15.1251 11.67 15.1251 10.5C15.1251 9.32998 14.1701 8.37498 13.0001 8.37498Z" fill="#83899F"/>
<path d="M17.2951 18.375C17.0901 18.375 16.9201 18.205 16.9201 18C16.9201 16.275 15.1601 14.875 13.0001 14.875C10.8401 14.875 9.08014 16.275 9.08014 18C9.08014 18.205 8.91014 18.375 8.70514 18.375C8.50014 18.375 8.33014 18.205 8.33014 18C8.33014 15.865 10.4251 14.125 13.0001 14.125C15.5751 14.125 17.6701 15.865 17.6701 18C17.6701 18.205 17.5001 18.375 17.2951 18.375Z" fill="#83899F"/>
<rect x="1.00012" y="1" width="24" height="24" rx="12" stroke="#83899F" stroke-width="0.3" stroke-dasharray="1.2 1.2"/>
<ellipse cx="6.99999" cy="22" rx="3.99999" ry="3.99999" fill="#0771DE"/>
<path d="M5.6673 21.9987H8.33396" stroke="white" stroke-width="0.449999" stroke-linecap="round" stroke-linejoin="round"/>
<path d="M7.00067 23.332V20.6654" stroke="white" stroke-width="0.449999" stroke-linecap="round" stroke-linejoin="round"/>
</svg>
