<svg width="23" height="22" viewBox="0 0 23 22" fill="none" xmlns="http://www.w3.org/2000/svg">
<rect x="0.0286255" width="22.045" height="22" rx="4.8913" fill="#F4F4F4"/>
<path d="M10.6521 11.2144L8.62739 9.19453C8.37211 8.93985 8.37211 8.51832 8.62739 8.26364C8.88268 8.00896 9.30523 8.00896 9.56052 8.26364L11.5852 10.2835L13.6099 8.26364C13.8652 8.00896 14.2877 8.00896 14.543 8.26364C14.7983 8.51832 14.7983 8.93985 14.543 9.19453L12.5183 11.2144L14.543 13.2343C14.7983 13.4889 14.7983 13.9105 14.543 14.1651C14.411 14.2969 14.2437 14.3583 14.0765 14.3583C13.9092 14.3583 13.742 14.2969 13.6099 14.1651L11.5852 12.1453L9.56052 14.1651C9.42847 14.2969 9.26121 14.3583 9.09395 14.3583C8.9267 14.3583 8.75944 14.2969 8.62739 14.1651C8.37211 13.9105 8.37211 13.4889 8.62739 13.2343L10.6521 11.2144Z" fill="#1C1C28"/>
</svg>
