<svg width="14" height="14" viewBox="0 0 14 14" fill="none" xmlns="http://www.w3.org/2000/svg">
<path d="M9.33333 1.16666H4.66667C2.625 1.16666 1.75 2.33333 1.75 4.08333V9.91666C1.75 11.6667 2.625 12.8333 4.66667 12.8333H9.33333C11.375 12.8333 12.25 11.6667 12.25 9.91666V4.08333C12.25 2.33333 11.375 1.16666 9.33333 1.16666ZM4.66667 7.14583H7C7.23917 7.14583 7.4375 7.34416 7.4375 7.58333C7.4375 7.8225 7.23917 8.02083 7 8.02083H4.66667C4.4275 8.02083 4.22917 7.8225 4.22917 7.58333C4.22917 7.34416 4.4275 7.14583 4.66667 7.14583ZM9.33333 10.3542H4.66667C4.4275 10.3542 4.22917 10.1558 4.22917 9.91666C4.22917 9.6775 4.4275 9.47916 4.66667 9.47916H9.33333C9.5725 9.47916 9.77083 9.6775 9.77083 9.91666C9.77083 10.1558 9.5725 10.3542 9.33333 10.3542ZM10.7917 5.39583H9.625C8.73833 5.39583 8.02083 4.67833 8.02083 3.79166V2.625C8.02083 2.38583 8.21917 2.1875 8.45833 2.1875C8.6975 2.1875 8.89583 2.38583 8.89583 2.625V3.79166C8.89583 4.19416 9.2225 4.52083 9.625 4.52083H10.7917C11.0308 4.52083 11.2292 4.71916 11.2292 4.95833C11.2292 5.1975 11.0308 5.39583 10.7917 5.39583Z" fill="#9599D8"/>
</svg>
