<svg width="20" height="20" viewBox="0 0 20 20" fill="none" xmlns="http://www.w3.org/2000/svg">
<g clip-path="url(#clip0_4_7189)">
<rect width="20" height="20" rx="6" fill="white"/>
<path fill-rule="evenodd" clip-rule="evenodd" d="M20.0001 -0.000656128H6.10352e-05V19.9993H20.0001V-0.000656128ZM10.0642 8.24324C9.05836 8.24324 8.24316 9.05839 8.24316 10.0637C8.24316 11.0689 9.05836 11.8841 10.0642 11.8841C11.0701 11.8841 11.8857 11.0689 11.8857 10.0637C11.8857 9.05839 11.0701 8.24324 10.0642 8.24324ZM10.0642 12.8677C8.51462 12.8677 7.25849 11.6123 7.25849 10.0637C7.25849 8.51497 8.51462 7.2596 10.0642 7.2596C11.6138 7.2596 12.87 8.51497 12.87 10.0637C12.87 11.6123 11.6138 12.8677 10.0642 12.8677ZM12.4357 7.51253C12.3637 7.40473 12.3253 7.27802 12.3253 7.14842C12.3255 6.97469 12.3946 6.80813 12.5176 6.68531C12.6405 6.5625 12.8072 6.49347 12.981 6.49339H12.9813C13.111 6.49344 13.2377 6.53192 13.3455 6.60397C13.4533 6.67602 13.5373 6.77839 13.5869 6.89815C13.6365 7.01791 13.6494 7.14968 13.6241 7.27678C13.5987 7.40388 13.5362 7.52062 13.4445 7.61223C13.3528 7.70384 13.2359 7.7662 13.1087 7.79144C12.9815 7.81667 12.8497 7.80364 12.7299 7.75399C12.6101 7.70435 12.5077 7.62032 12.4357 7.51253ZM6.84204 14.3208C7.03447 14.3957 7.32402 14.4844 7.85674 14.5086C8.43253 14.5351 8.60506 14.5404 10.0642 14.5404C11.5234 14.5404 11.6964 14.5351 12.2724 14.5086C12.8051 14.4844 13.0947 14.3957 13.2871 14.3208C13.5422 14.2215 13.7245 14.1031 13.9156 13.9123C14.1067 13.7215 14.225 13.5396 14.3243 13.2846C14.3988 13.0923 14.488 12.8029 14.5122 12.2705C14.5387 11.6944 14.544 11.522 14.544 10.0637C14.544 8.6054 14.5387 8.43297 14.5122 7.85688C14.488 7.32447 14.3993 7.03501 14.3243 6.84279C14.225 6.58784 14.1069 6.40566 13.9156 6.21467C13.7242 6.02367 13.5422 5.90502 13.2871 5.8062C13.0942 5.73193 12.8051 5.64259 12.2724 5.61835C11.6959 5.59231 11.5227 5.58659 10.0642 5.58659C8.60571 5.58659 8.4327 5.59187 7.85674 5.61835C7.32402 5.64255 7.03438 5.73123 6.84204 5.8062C6.5865 5.90502 6.40466 6.02341 6.21354 6.21467C6.02243 6.40593 5.90415 6.58784 5.80483 6.84279C5.73052 7.03558 5.64113 7.32447 5.61687 7.85688C5.59082 8.43297 5.58509 8.6054 5.58509 10.0637C5.58509 11.522 5.59038 11.6949 5.61687 12.2705C5.64109 12.8029 5.72982 13.0924 5.80483 13.2846C5.90371 13.5396 6.02217 13.7213 6.21354 13.9123C6.40492 14.1033 6.58694 14.2215 6.84204 14.3208ZM6.48522 4.88957C6.83234 4.75458 7.22982 4.6624 7.8115 4.63593C8.39441 4.60902 8.5808 4.60286 10.0647 4.60286C11.5485 4.60286 11.7348 4.60946 12.3174 4.63593C12.8986 4.66197 13.2959 4.75458 13.6437 4.88957C14.0025 5.02898 14.3075 5.21552 14.6112 5.51944C14.9148 5.82337 15.1015 6.12773 15.2414 6.48679C15.3765 6.8337 15.4687 7.2309 15.4952 7.81228C15.5217 8.39453 15.5279 8.58068 15.5279 10.0637C15.5279 11.5466 15.5217 11.7323 15.4952 12.315C15.4692 12.8964 15.3765 13.2934 15.2414 13.6405C15.1015 13.9996 14.9153 14.3044 14.6112 14.6079C14.3071 14.9113 14.0025 15.0979 13.6432 15.2377C13.2959 15.3727 12.8987 15.4649 12.317 15.4914C11.7344 15.5183 11.5481 15.5244 10.0642 15.5244C8.58036 15.5244 8.39441 15.5178 7.8115 15.4914C7.22982 15.4649 6.833 15.3727 6.48522 15.2377C6.12573 15.0979 5.82136 14.9112 5.51729 14.6079C5.21323 14.3045 5.02653 13.9996 4.88704 13.6405C4.75197 13.2934 4.65974 12.8964 4.63325 12.315C4.60632 11.7328 4.60016 11.5466 4.60016 10.0637C4.60016 8.58068 4.60632 8.39453 4.63325 7.81228C4.65974 7.23094 4.75197 6.83392 4.88704 6.48679C5.02653 6.12751 5.21318 5.82289 5.51729 5.51944C5.8214 5.216 6.12573 5.02898 6.48522 4.88957Z" fill="url(#paint0_linear_4_7189)"/>
</g>
<defs>
<linearGradient id="paint0_linear_4_7189" x1="15.5278" y1="15.5244" x2="9.39875" y2="9.44201" gradientUnits="userSpaceOnUse">
<stop stop-color="#FBE18A"/>
<stop offset="0.21" stop-color="#FCBB45"/>
<stop offset="0.38" stop-color="#F75274"/>
<stop offset="0.52" stop-color="#D53692"/>
<stop offset="0.74" stop-color="#8F39CE"/>
<stop offset="1" stop-color="#5B4FE9"/>
</linearGradient>
<clipPath id="clip0_4_7189">
<rect width="20" height="20" rx="6" fill="white"/>
</clipPath>
</defs>
</svg>
