<svg width="14" height="15" viewBox="0 0 14 15" fill="none" xmlns="http://www.w3.org/2000/svg">
<path d="M5.25002 1.2399C3.72169 1.2399 2.47919 2.4824 2.47919 4.01073C2.47919 5.5099 3.65169 6.72323 5.18002 6.77573C5.22669 6.7699 5.27335 6.7699 5.30835 6.77573C5.32002 6.77573 5.32585 6.77573 5.33752 6.77573C5.34335 6.77573 5.34335 6.77573 5.34919 6.77573C6.84252 6.72323 8.01502 5.5099 8.02085 4.01073C8.02085 2.4824 6.77835 1.2399 5.25002 1.2399Z" fill="#0771DE"/>
<path d="M8.21331 8.32742C6.58581 7.24242 3.93164 7.24242 2.29248 8.32742C1.55164 8.82326 1.14331 9.49409 1.14331 10.2116C1.14331 10.9291 1.55164 11.5941 2.28664 12.0841C3.10331 12.6324 4.17664 12.9066 5.24998 12.9066C6.32331 12.9066 7.39664 12.6324 8.21331 12.0841C8.94831 11.5883 9.35664 10.9233 9.35664 10.1999C9.35081 9.48242 8.94831 8.81742 8.21331 8.32742Z" fill="#0771DE"/>
<path opacity="0.4" d="M11.6608 4.3549C11.7542 5.48656 10.9492 6.47823 9.835 6.6124C9.82917 6.6124 9.82917 6.6124 9.82334 6.6124H9.80584C9.77083 6.6124 9.73583 6.6124 9.70667 6.62406C9.14083 6.65323 8.62167 6.4724 8.23083 6.1399C8.83167 5.60323 9.17584 4.79823 9.10584 3.92323C9.065 3.45073 8.90167 3.01906 8.65667 2.65156C8.87834 2.54073 9.135 2.47073 9.3975 2.4474C10.5408 2.34823 11.5617 3.1999 11.6608 4.3549Z" fill="#0771DE"/>
<path opacity="0.4" d="M12.8275 9.75075C12.7808 10.3166 12.4192 10.8066 11.8125 11.1391C11.2292 11.4599 10.4942 11.6116 9.76499 11.5941C10.185 11.2149 10.43 10.7424 10.4767 10.2407C10.535 9.51742 10.1908 8.82325 9.5025 8.26908C9.11166 7.95992 8.65666 7.71492 8.16083 7.53408C9.44999 7.16075 11.0717 7.41158 12.0692 8.21658C12.6058 8.64825 12.88 9.19075 12.8275 9.75075Z" fill="#0771DE"/>
</svg>
