<svg width="14" height="14" viewBox="0 0 14 14" fill="none" xmlns="http://www.w3.org/2000/svg">
<g clip-path="url(#clip0_4_7229)">
<path d="M7 0C5.61553 0 4.26216 0.410543 3.11101 1.17971C1.95987 1.94888 1.06266 3.04213 0.532846 4.32122C0.003033 5.6003 -0.13559 7.00777 0.134506 8.36563C0.404603 9.7235 1.07129 10.9708 2.05026 11.9497C3.02922 12.9287 4.2765 13.5954 5.63437 13.8655C6.99224 14.1356 8.3997 13.997 9.67879 13.4672C10.9579 12.9373 12.0511 12.0401 12.8203 10.889C13.5895 9.73785 14 8.38447 14 7C13.998 5.1441 13.2599 3.36479 11.9475 2.05247C10.6352 0.74015 8.8559 0.0020073 7 0ZM7 12.8333C5.84628 12.8333 4.71846 12.4912 3.75918 11.8502C2.79989 11.2093 2.05222 10.2982 1.61071 9.23232C1.16919 8.16642 1.05368 6.99353 1.27876 5.86197C1.50384 4.73042 2.05941 3.69102 2.87521 2.87521C3.69102 2.0594 4.73042 1.50383 5.86198 1.27875C6.99353 1.05367 8.16642 1.16919 9.23232 1.6107C10.2982 2.05221 11.2093 2.79989 11.8502 3.75917C12.4912 4.71846 12.8333 5.84628 12.8333 7C12.8316 8.54658 12.2165 10.0293 11.1229 11.1229C10.0293 12.2165 8.54658 12.8316 7 12.8333Z" fill="#0771DE"/>
<path d="M7.41827 2.95341C7.08188 2.89212 6.73613 2.90551 6.40548 2.99263C6.07484 3.07976 5.76738 3.23849 5.50488 3.45759C5.24237 3.67669 5.03122 3.95081 4.88638 4.26054C4.74153 4.57028 4.66653 4.90806 4.66669 5.24999C4.66669 5.4047 4.72815 5.55308 4.83754 5.66247C4.94694 5.77187 5.09531 5.83333 5.25002 5.83333C5.40473 5.83333 5.5531 5.77187 5.6625 5.66247C5.7719 5.55308 5.83335 5.4047 5.83335 5.24999C5.83321 5.07836 5.87093 4.90881 5.94383 4.75344C6.01674 4.59806 6.12302 4.46068 6.25511 4.35109C6.38721 4.24151 6.54185 4.16242 6.70802 4.11946C6.87419 4.07651 7.04779 4.07074 7.21644 4.10258C7.44688 4.14731 7.65875 4.25972 7.825 4.42545C7.99125 4.59117 8.10432 4.8027 8.14977 5.03299C8.19568 5.27473 8.16398 5.52479 8.05921 5.74742C7.95444 5.97006 7.78196 6.15387 7.56644 6.27258C7.20954 6.47935 6.91461 6.77804 6.71239 7.13754C6.51017 7.49705 6.40806 7.9042 6.41669 8.31658V8.74999C6.41669 8.9047 6.47815 9.05308 6.58754 9.16247C6.69694 9.27187 6.84531 9.33333 7.00002 9.33333C7.15473 9.33333 7.3031 9.27187 7.4125 9.16247C7.5219 9.05308 7.58335 8.9047 7.58335 8.74999V8.31658C7.57603 8.11358 7.62232 7.91225 7.71756 7.73283C7.8128 7.55342 7.95362 7.40226 8.12585 7.29458C8.54849 7.06245 8.88883 6.70509 9.10007 6.27165C9.31131 5.8382 9.38309 5.34995 9.30552 4.87405C9.22795 4.39815 9.00485 3.95796 8.66689 3.61403C8.32894 3.2701 7.89274 3.03931 7.41827 2.95341Z" fill="#0771DE"/>
<path d="M7.58335 10.5C7.58335 10.1778 7.32219 9.91666 7.00002 9.91666C6.67785 9.91666 6.41669 10.1778 6.41669 10.5C6.41669 10.8222 6.67785 11.0833 7.00002 11.0833C7.32219 11.0833 7.58335 10.8222 7.58335 10.5Z" fill="#0771DE"/>
</g>
<defs>
<clipPath id="clip0_4_7229">
<rect width="14" height="14" fill="white"/>
</clipPath>
</defs>
</svg>
