<svg width="14" height="14" viewBox="0 0 14 14" fill="none" xmlns="http://www.w3.org/2000/svg">
<path d="M11.375 9.33333C11.375 9.65592 11.1142 9.91667 10.7917 9.91667H9.625C9.30242 9.91667 9.04167 9.65592 9.04167 9.33333C9.04167 9.01075 9.30242 8.75 9.625 8.75H10.7917C11.1142 8.75 11.375 9.01075 11.375 9.33333ZM14 8.75V11.6667C14 12.9535 12.9535 14 11.6667 14H2.33333C1.0465 14 0 12.9535 0 11.6667V8.75C0 7.46317 1.0465 6.41667 2.33333 6.41667H2.91667V2.33333C2.91667 1.0465 3.96317 0 5.25 0H8.75C10.0368 0 11.0833 1.0465 11.0833 2.33333V6.41667H11.6667C12.9535 6.41667 14 7.46317 14 8.75ZM4.08333 6.41667H9.91667V2.33333C9.91667 1.68992 9.39342 1.16667 8.75 1.16667H5.25C4.60658 1.16667 4.08333 1.68992 4.08333 2.33333V6.41667ZM2.33333 12.8333H6.41667V7.58333H2.33333C1.68992 7.58333 1.16667 8.10658 1.16667 8.75V11.6667C1.16667 12.3101 1.68992 12.8333 2.33333 12.8333ZM12.8333 8.75C12.8333 8.10658 12.3101 7.58333 11.6667 7.58333H7.58333V12.8333H11.6667C12.3101 12.8333 12.8333 12.3101 12.8333 11.6667V8.75ZM4.375 8.75H3.20833C2.88575 8.75 2.625 9.01075 2.625 9.33333C2.625 9.65592 2.88575 9.91667 3.20833 9.91667H4.375C4.69758 9.91667 4.95833 9.65592 4.95833 9.33333C4.95833 9.01075 4.69758 8.75 4.375 8.75ZM8.16667 2.91667C8.16667 2.59408 7.90592 2.33333 7.58333 2.33333H6.41667C6.09408 2.33333 5.83333 2.59408 5.83333 2.91667C5.83333 3.23925 6.09408 3.5 6.41667 3.5H7.58333C7.90592 3.5 8.16667 3.23925 8.16667 2.91667Z" fill="#0771DE"/>
</svg>
